<?xml version="1.0" standalone="no"?><!DOCTYPE svg PUBLIC "-//W3C//DTD SVG 1.1//EN" "http://www.w3.org/Graphics/SVG/1.1/DTD/svg11.dtd"><svg t="1743688636586" class="icon" viewBox="0 0 1024 1024" version="1.1" xmlns="http://www.w3.org/2000/svg" p-id="10560" xmlns:xlink="http://www.w3.org/1999/xlink" width="20" height="20"><path d="M514.304 930.7648c-154.2144 0-415.232-30.3104-415.232-143.9232 0-88.2176 159.6928-121.9072 254.9248-134.144 19.6096-2.56 37.5808 11.3664 40.0896 30.976 2.5088 19.6096-11.3664 37.5808-30.976 40.0896-130.4576 16.7424-185.4464 49.5104-192.0512 63.0784 10.1376 21.4528 122.624 72.2432 343.2448 72.2432s333.1072-50.7904 343.2448-72.2432c-6.3488-12.8-57.856-44.1344-179.6096-61.3888-19.6096-2.7648-33.2288-20.8896-30.464-40.4992s20.9408-33.2288 40.4992-30.464c90.2144 12.8 241.5104 46.9504 241.5104 132.352 0.0512 113.6128-260.9152 143.9232-415.1808 143.9232z m343.7056-142.9504h0.0512-0.0512z" fill="#434A54" p-id="10561"></path><path d="M515.2256 839.8336c-25.7536 0-51.5584-9.1136-72.192-27.3408-131.4816-116.0704-259.84-242.3808-259.84-397.4656 0-183.5008 149.2992-332.8 332.8-332.8s332.8 149.2992 332.8 332.8c0 161.5872-106.2912 257.4848-253.3888 390.2464l-7.0144 6.3488a108.91264 108.91264 0 0 1-73.1648 28.2112z m0.768-685.9776c-143.9744 0-261.12 117.1456-261.12 261.12 0 125.2352 116.3776 238.4896 235.5712 343.7056a37.47328 37.47328 0 0 0 49.92-0.3072l7.0656-6.3488c138.3424-124.8768 229.7344-207.36 229.7344-337.0496 0-143.9744-117.1456-261.12-261.1712-261.12z" fill="#434A54" p-id="10562"></path><path d="M515.9936 555.5712c-77.5168 0-140.544-63.0272-140.544-140.544s63.0272-140.544 140.544-140.544 140.544 63.0272 140.544 140.544-63.0272 140.544-140.544 140.544z m0-209.408c-37.9904 0-68.864 30.8736-68.864 68.864s30.8736 68.864 68.864 68.864 68.864-30.8736 68.864-68.864-30.8736-68.864-68.864-68.864z" fill="#7BD3FF" p-id="10563"></path></svg>