<?xml version="1.0" standalone="no"?><!DOCTYPE svg PUBLIC "-//W3C//DTD SVG 1.1//EN" "http://www.w3.org/Graphics/SVG/1.1/DTD/svg11.dtd"><svg t="1743687373066" class="icon" viewBox="0 0 1024 1024" version="1.1" xmlns="http://www.w3.org/2000/svg" p-id="1544" xmlns:xlink="http://www.w3.org/1999/xlink" width="20" height="20"><path d="M562.804364 549.073455c20.037818 0 36.305455-16.593455 36.305454-37.073455s-16.267636-37.096727-36.305454-37.096727h-185.995637c-20.014545 0-36.282182 16.616727-36.282182 37.096727 0 20.48 16.244364 37.073455 36.305455 37.073455h185.972364z m110.312727 0.046545l9.425454-0.093091c20.037818-0.139636 36.165818-16.872727 36.00291-37.352727-0.139636-20.386909-16.360727-36.794182-36.282182-36.794182h-0.279273l-9.448727 0.069818c-20.014545 0.162909-36.165818 16.872727-36.002909 37.352727 0.139636 20.386909 16.360727 36.817455 36.305454 36.817455h0.256z m322.187636-68.770909c-8.517818-24.389818-27.880727-43.240727-50.920727-54.039273L151.389091 54.970182A88.180364 88.180364 0 0 0 113.710545 46.545455C63.767273 46.545455 23.272727 87.901091 23.272727 138.938182v209.338182c0 37.934545 22.690909 72.052364 57.250909 85.969454l3.328 1.349818 3.421091 0.977455 146.525091 42.635636c23.179636 6.749091 46.242909-11.031273 46.242909-35.653818a37.003636 37.003636 0 0 0-26.368-35.677091l-146.501818-42.612363a18.245818 18.245818 0 0 1-11.310545-16.989091V138.938182c0-10.519273 8.448-18.269091 17.850181-18.269091 2.466909 0 4.980364 0.535273 7.447273 1.698909l796.555637 373.015273c13.893818 6.493091 13.893818 26.670545 0 33.186909L121.157818 901.585455a17.664 17.664 0 0 1-7.447273 1.675636 18.059636 18.059636 0 0 1-17.850181-18.269091v-209.314909c0-7.493818 4.468364-14.219636 11.310545-16.989091l146.501818-42.612364a36.980364 36.980364 0 0 0 26.368-35.653818c0-24.622545-23.04-42.402909-46.242909-35.677091L87.272727 587.403636l-3.421091 1.000728-3.304727 1.326545c-34.56 13.940364-57.250909 48.034909-57.250909 85.992727v203.636364C23.272727 930.257455 63.837091 977.431273 113.664 977.454545c13.079273 0 25.762909-2.839273 37.701818-8.424727l796.578909-373.061818c41.309091-19.316364 63.790545-68.514909 47.336728-115.618909z" fill="#000000" p-id="1545"></path></svg>