<?xml version="1.0" standalone="no"?><!DOCTYPE svg PUBLIC "-//W3C//DTD SVG 1.1//EN" "http://www.w3.org/Graphics/SVG/1.1/DTD/svg11.dtd"><svg t="1743687937188" class="icon" viewBox="0 0 1433 1024" version="1.1" xmlns="http://www.w3.org/2000/svg" p-id="2232" xmlns:xlink="http://www.w3.org/1999/xlink" width="27.98828125" height="20"><path d="M0 0m90.066774 0l1080.801286 0q90.066774 0 90.066774 90.066774l0 720.534191q0 90.066774-90.066774 90.066774l-1080.801286 0q-90.066774 0-90.066774-90.066774l0-720.534191q0-90.066774 90.066774-90.066774Z" fill="#FFFFFF" p-id="2233"></path><path d="M1171.656145 900.667739l-1082.399972-0.022517-3.580154-0.090067a90.314457 90.314457 0 0 1-80.519696-59.939438H1255.755995A90.336974 90.336974 0 0 1 1171.656145 900.667739zM1260.934834 720.534191v60.052021H0V720.534191h1260.934834z m0-120.081526v60.029504H0v-60.029504h1260.934834z m0-120.104043V540.400643H0v-60.052021h1260.934834zM1260.934834 360.267095v60.052022H0V360.267095h1260.934834z m0-120.081526v60.029505H0v-60.029505h1260.934834z m0-120.104043V180.133548H0V120.081526h1260.934834zM1170.755477 0a90.291941 90.291941 0 0 1 85.023034 60.052021H5.178839A90.336974 90.336974 0 0 1 90.179357 0h1080.57612z" fill="#D02F44" p-id="2234"></path><path d="M540.400643 0v420.319117H0V90.066774c0-49.761893 40.530048-90.066774 90.179357-90.066774H540.400643z" fill="#46467F" p-id="2235"></path><path d="M450.333869 300.215074A30.014752 30.014752 0 1 1 450.333869 360.267095a30.014752 30.014752 0 0 1 0-60.052021z m-120.081526 0a30.014752 30.014752 0 1 1 0 60.052021 30.014752 30.014752 0 0 1 0-60.052021z m-120.104043 0a30.014752 30.014752 0 1 1 0 60.052021 30.014752 30.014752 0 0 1 0-60.052021z m-120.081526 0A30.014752 30.014752 0 1 1 90.066774 360.267095a30.014752 30.014752 0 0 1 0-60.052021z m60.052021-60.029505a30.014752 30.014752 0 1 1 0 60.029505 30.014752 30.014752 0 0 1 0-60.029505z m120.081527 0a30.014752 30.014752 0 1 1 0 60.029505 30.014752 30.014752 0 0 1 0-60.029505z m120.081526 0a30.014752 30.014752 0 1 1 0 60.029505 30.014752 30.014752 0 0 1 0-60.029505zM450.333869 180.133548a30.014752 30.014752 0 1 1 0 60.052021A30.014752 30.014752 0 0 1 450.333869 180.133548z m-120.081526 0a30.014752 30.014752 0 1 1 0 60.052021 30.014752 30.014752 0 0 1 0-60.052021zM210.1483 180.133548a30.014752 30.014752 0 1 1 0 60.052021 30.014752 30.014752 0 0 1 0-60.052021zM90.066774 180.133548a30.014752 30.014752 0 1 1 0 60.052021A30.014752 30.014752 0 0 1 90.066774 180.133548z m60.052021-60.052022a30.014752 30.014752 0 1 1 0 60.052022 30.014752 30.014752 0 0 1 0-60.052022z m120.081527 0A30.014752 30.014752 0 1 1 270.200322 180.133548a30.014752 30.014752 0 0 1 0-60.052022z m120.081526 0a30.014752 30.014752 0 1 1 0 60.052022 30.014752 30.014752 0 0 1 0-60.052022zM90.066774 60.052021a30.014752 30.014752 0 1 1 0 60.029505 30.014752 30.014752 0 0 1 0-60.029505z m120.081526 0a30.014752 30.014752 0 1 1 0 60.029505 30.014752 30.014752 0 0 1 0-60.029505z m120.104043 0a30.014752 30.014752 0 1 1 0 60.029505 30.014752 30.014752 0 0 1 0-60.029505z m120.081526 0a30.014752 30.014752 0 1 1 0 60.029505 30.014752 30.014752 0 0 1 0-60.029505z" fill="#FFFFFF" p-id="2236"></path></svg>